# xmcd CD database file
#
# Track frame offsets:
#	150
#	9435
#	23692
#	34322
#	48452
#	61022
#	74950
#	90775
#	104627
#	116807
#	133880
#	147652
#	161305
#	171607
#	183542
#
# Disc length: 2622 seconds
#
# Revision: 2
# Processed by: cddbd v1.5.1PL0 Copyright (c) Steve Scherf et al.
# Submitted via: CDex 1.51
#
DISCID=dc0a3c0f
DTITLE=Dolly Parton - The RCA Years 1967-1986 Disc 1
DYEAR=1993
DGENRE=Country
TTITLE0=The Letter
TTITLE1=Mule Skinner Blues
TTITLE2=Put it off Untill Tomorrow
TTITLE3=My Tennessee Mountain Home
TTITLE4=In The Good Old Days (When Times Where Bad)
TTITLE5=Coat Of Many Colors
TTITLE6=My Blue Ridge Mountain Boy
TTITLE7=Just Because I'm A Woman
TTITLE8=Jolene
TTITLE9=Down From Dover
TTITLE10=The Last One to Touch Me
TTITLE11=Daddy Come and Get Me
TTITLE12=My Blue Tears
TTITLE13=Kentucky Gambler
TTITLE14=I Will Always Love You
EXTD=YEAR: 1993
EXTT0=
EXTT1=
EXTT2=
EXTT3=
EXTT4=
EXTT5=
EXTT6=
EXTT7=
EXTT8=
EXTT9=
EXTT10=
EXTT11=
EXTT12=
EXTT13=
EXTT14=
PLAYORDER=
